<svg xmlns="http://www.w3.org/2000/svg" viewBox="0 0 480 300" class="drawing" role="img"
     aria-label="A garden: a low fence, three flowers, and a dog kennel.">
  <defs>
    <radialGradient id="seed" cx="0.5" cy="0.5" r="0.5">
      <stop offset="0" class="seed-in"/>
      <stop offset="1" class="seed-out"/>
    </radialGradient>
  </defs>

  <!-- the one warm glow permitted in era-was (art-direction.md) -->
  <ellipse cx="196" cy="234" rx="104" ry="56" fill="url(#seed)" class="glow"/>

  <path pathLength="1" d="M 34 268 L 452 268"/>

  <!-- garden fence -->
  <path pathLength="1" d="M 50 224 L 190 224"/>
  <path pathLength="1" d="M 50 250 L 190 250"/>
  <path pathLength="1" d="M 60 268 L 60 210"/>
  <path pathLength="1" d="M 90 268 L 90 210"/>
  <path pathLength="1" d="M 120 268 L 120 210"/>
  <path pathLength="1" d="M 150 268 L 150 210"/>
  <path pathLength="1" d="M 180 268 L 180 210"/>

  <!-- three flowers -->
  <path pathLength="1" d="M 218 268 C 215 248 220 234 224 226"/>
  <path pathLength="1" d="M 224 226 m -8 0 a 8 8 0 1 0 16 0 a 8 8 0 1 0 -16 0"/>
  <path pathLength="1" d="M 244 268 C 244 246 242 230 240 218"/>
  <path pathLength="1" d="M 240 218 m -8 0 a 8 8 0 1 0 16 0 a 8 8 0 1 0 -16 0"/>
  <path pathLength="1" d="M 268 268 C 271 250 267 238 263 230"/>
  <path pathLength="1" d="M 263 230 m -7 0 a 7 7 0 1 0 14 0 a 7 7 0 1 0 -14 0"/>

  <!-- The kennel says a dog lives here without drawing one. She is not in
       this frame; she is the black-and-white sprite in the margin. -->
  <path pathLength="1" d="M 306 196 L 306 268"/>
  <path pathLength="1" d="M 418 196 L 418 268"/>
  <path pathLength="1" d="M 306 196 L 418 196"/>
  <path pathLength="1" d="M 292 200 L 362 152 L 432 200"/>
  <path pathLength="1" d="M 298 208 L 362 164 L 426 208"/>
  <path pathLength="1" d="M 340 268 L 340 238 A 22 22 0 0 1 384 238 L 384 268"/>
  <path pathLength="1" d="M 306 224 L 340 224"/>
  <path pathLength="1" d="M 384 224 L 418 224"/>
</svg>
